<?xml version="1.0" encoding="utf-8"?>
<!-- Generator: Adobe Illustrator 23.1.1, SVG Export Plug-In . SVG Version: 6.00 Build 0)  -->
<svg version="1.1" id="Layer_1" xmlns="http://www.w3.org/2000/svg" xmlns:xlink="http://www.w3.org/1999/xlink" x="0px" y="0px"
	 viewBox="0 0 72 72" style="enable-background:new 0 0 72 72;" xml:space="preserve">
<style type="text/css">
	.st0{fill:#B18B69;}
</style>
<g id="Guides">
</g>
<g>
	<path id="Facebook" class="st0" d="M26.5,14c0,1.9,0,9.9,0,9.9h-7.2v12.2h7.2V72h14.9V35.9h9.9c0,0,1-5.8,1.4-12.2
		c-1.2,0-11.3,0-11.3,0s0-7,0-8.3s1.7-2.9,3.3-2.9c1.7,0,5,0,8,0c0-1.7,0-7.4,0-12.6c-4.1,0-8.9,0-11.1,0C26.3,0,26.5,12.2,26.5,14z
		"/>
</g>
</svg>
