<?xml version="1.0" encoding="utf-8"?>
<!-- Generator: Adobe Illustrator 23.1.1, SVG Export Plug-In . SVG Version: 6.00 Build 0)  -->
<svg version="1.1" id="Layer_1" xmlns="http://www.w3.org/2000/svg" xmlns:xlink="http://www.w3.org/1999/xlink" x="0px" y="0px"
	 viewBox="0 0 72 72" style="enable-background:new 0 0 72 72;" xml:space="preserve">
<style type="text/css">
	.st0{fill:#B18B69;}
</style>
<g id="Guides">
</g>
<g>
	<path class="st0" d="M52.3,0H19.8C8.8,0,0,9,0,19.8v32.2c0,11,9,19.8,19.8,19.8h32.2c11,0,19.8-9,19.8-19.8V19.8
		C72.1,9,63.1,0,52.3,0z M65.7,52.3c0,7.4-6,13.4-13.4,13.4H19.8c-7.4,0-13.4-6-13.4-13.4V19.8c0-7.4,6-13.4,13.4-13.4h32.2
		c7.4,0,13.4,6,13.4,13.4L65.7,52.3L65.7,52.3z"/>
	<path class="st0" d="M36,17.4c-10.2,0-18.6,8.4-18.6,18.6S25.8,54.7,36,54.7s18.6-8.4,18.6-18.6S46.3,17.4,36,17.4z M36,48.3
		c-6.8,0-12.2-5.4-12.2-12.2c0-6.8,5.4-12.2,12.2-12.2s12.2,5.4,12.2,12.2S42.9,48.3,36,48.3z"/>
	<path class="st0" d="M55.5,12c-1.2,0-2.4,0.4-3.4,1.4c-0.8,0.8-1.4,2-1.4,3.4c0,1.2,0.6,2.4,1.4,3.4c0.8,0.8,2,1.4,3.4,1.4
		c1.2,0,2.4-0.6,3.4-1.4c0.8-0.8,1.4-2,1.4-3.4c0-1.2-0.4-2.4-1.4-3.4C57.9,12.6,56.7,12,55.5,12z"/>
</g>
</svg>
